<svg xmlns="http://www.w3.org/2000/svg" width="192" height="192" viewBox="0 0 192 192">
  <rect width="192" height="192" rx="32" fill="#dc2626"/>
  <path d="M96 48c-8 0-14.4 6.4-14.4 14.4v33.6c0 5.6-4.8 10.4-10.4 10.4H57.6c-5.6 0-10.4 4.8-10.4 10.4v4.8c0 5.6 4.8 10.4 10.4 10.4h13.6c5.6 0 10.4 4.8 10.4 10.4v4.8c0 8 6.4 14.4 14.4 14.4s14.4-6.4 14.4-14.4v-4.8c0-5.6 4.8-10.4 10.4-10.4h13.6c5.6 0 10.4-4.8 10.4-10.4v-4.8c0-5.6-4.8-10.4-10.4-10.4h-13.6c-5.6 0-10.4-4.8-10.4-10.4V62.4C110.4 54.4 104 48 96 48z" fill="#fff"/>
</svg>
